<svg width="92" height="92" viewBox="0 0 92 92" fill="none" xmlns="http://www.w3.org/2000/svg">
<g clip-path="url(#clip0)">
<path d="M16.1153 41.722C16.7439 44.068 15.1186 47.7173 16.7899 50.5847C18.4613 53.452 22.5093 53.958 24.1193 55.5833C25.1365 57.025 26.0047 58.5663 26.7106 60.1833L18.5839 83.904C18.2008 85.1378 18.632 86.4794 19.6622 87.2589C20.6925 88.0385 22.1007 88.0888 23.1839 87.3847L28.2746 83.7813L30.0686 89.746C30.4474 91.0258 31.6104 91.9136 32.9448 91.9416C34.2792 91.9697 35.4784 91.1314 35.9106 89.8687L43.8533 67.0067C45.225 67.5895 46.7748 67.5895 48.1466 67.0067L56.0279 89.93C56.4601 91.1928 57.6594 92.031 58.9937 92.003C60.3281 91.975 61.4911 91.0871 61.8699 89.8073L63.6639 83.8427L68.7546 87.4C69.8378 88.1041 71.2461 88.0538 72.2763 87.2743C73.3065 86.4947 73.7377 85.1531 73.3546 83.9193L65.2893 60.2447C65.9978 58.632 66.8605 57.0915 67.8653 55.6447C69.5366 53.9273 73.5999 53.4673 75.2099 50.6C76.8199 47.7327 75.2866 44.0067 75.8846 41.7373C76.4826 39.468 79.7333 37.0913 79.7333 33.7333C79.7333 30.3753 76.4519 27.876 75.8846 25.7293C75.3173 23.5827 76.8813 19.734 75.2099 16.8667C73.5386 13.9993 69.4906 13.4933 67.8806 11.868C66.2706 10.2427 65.7646 6.13333 62.8666 4.508C59.9686 2.88267 56.2733 4.508 54.0039 3.84867C51.7346 3.18933 49.3733 0 45.9999 0C42.6266 0 40.1579 3.266 37.9959 3.84867C35.6039 4.47733 32.0159 2.83667 29.1333 4.508C26.2506 6.17933 25.7753 10.212 24.1346 11.8527C22.4939 13.4933 18.3999 13.9687 16.8666 16.8667C15.3333 19.7647 16.8666 23.46 16.1919 25.7293C15.5173 27.9987 12.2666 30.3447 12.2666 33.7333C12.2666 37.122 15.5326 39.5447 16.1153 41.722ZM33.0739 88.9333L31.2799 82.938C30.9769 82.0032 30.2443 81.2702 29.3097 80.9668C28.375 80.6633 27.3516 80.8262 26.5573 81.4047L21.4666 84.962C29.6853 61.0267 28.9799 62.8667 29.1333 62.8667C31.9546 64.5073 35.7266 62.8667 37.9959 63.526C39.1018 64.0007 40.1344 64.6306 41.0626 65.3967L33.0739 88.9333ZM65.4426 81.2667C64.6273 80.6917 63.5832 80.5492 62.6437 80.8847C61.7041 81.2203 60.9865 81.9919 60.7199 82.9533L58.9259 88.9333L50.8606 65.458C51.7812 64.6853 52.8156 64.0595 53.9273 63.6027C56.3346 62.9587 59.9073 64.5993 62.7899 62.928C62.9433 62.836 62.2533 61.0573 70.4566 84.9467L65.4426 81.2667ZM17.0506 30.2067C19.2433 27.14 19.5499 26.128 19.1973 22.1567C18.8446 18.1853 19.0593 17.9093 22.6319 16.2687C26.2046 14.628 26.9099 13.9073 28.5353 10.35C30.1606 6.79267 30.6666 6.578 34.4386 6.93067C38.2106 7.28333 39.3913 6.93067 42.4886 4.784C45.5859 2.63733 46.2759 2.49933 49.5113 4.784C52.7466 7.06867 53.6666 7.268 57.5613 6.93067C61.4559 6.59333 61.8239 6.79267 63.4646 10.35C65.1053 13.9073 65.8413 14.628 69.3679 16.2687C72.8946 17.9093 73.1553 18.3233 72.8026 22.1567C72.4499 25.99 72.8026 27.1247 74.9493 30.2067C77.0959 33.2887 77.2339 33.994 74.9493 37.2293C72.6646 40.4647 72.4499 41.308 72.8026 45.2793C73.1553 49.2507 72.9406 49.5267 69.3679 51.1827C65.7953 52.8387 65.1053 53.5287 63.4646 57.086C61.8239 60.6433 61.4099 60.858 57.5613 60.5207C53.7126 60.1833 52.6086 60.5207 49.5113 62.652C46.4139 64.7833 45.7239 64.9367 42.4886 62.652C40.8904 61.2066 38.8167 60.399 36.6619 60.3827C34.4539 60.3827 31.9546 61.0113 30.6666 60.2753C28.9033 59.248 28.4279 55.5373 26.2966 53.4213C24.1653 51.3053 20.4393 50.784 19.4426 49.0667C18.4459 47.3493 19.8566 43.8533 19.0746 40.9553C18.2926 38.0573 15.3333 35.7727 15.3333 33.7333C15.5655 32.4206 16.1604 31.199 17.0506 30.2067Z" fill="#26264F"/>
<path d="M46 56.7334C58.7025 56.7334 69 46.4359 69 33.7334C69 21.0308 58.7025 10.7334 46 10.7334C33.2975 10.7334 23 21.0308 23 33.7334C23 46.4359 33.2975 56.7334 46 56.7334ZM46 13.8001C57.0089 13.8001 65.9333 22.7245 65.9333 33.7334C65.9333 44.7423 57.0089 53.6667 46 53.6667C34.9911 53.6667 26.0667 44.7423 26.0667 33.7334C26.0667 28.4467 28.1668 23.3766 31.905 19.6384C35.6432 15.9002 40.7134 13.8001 46 13.8001Z" fill="#26264F"/>
<path d="M35.3434 38.6859C36.1602 38.645 36.8011 37.9704 36.8001 37.1526C36.728 34.4349 37.7954 31.8109 39.7441 29.9153C42.0594 27.6153 44.7888 27.0019 48.1468 26.4346C50.4641 26.0361 52.6791 25.1814 54.6634 23.9199C56.6568 31.5866 53.0228 41.0933 45.4634 43.6079C43.6913 44.1912 41.8396 44.4963 39.9741 44.5126C42.1993 40.364 45.3467 36.7812 49.1741 34.0399C49.5042 33.8005 49.7254 33.4395 49.7887 33.0367C49.852 32.6338 49.7522 32.2224 49.5114 31.8933C49.0137 31.2154 48.0628 31.0649 47.3801 31.5559C42.4108 34.9999 38.5234 39.7861 36.1714 45.3559C36.0136 45.7994 36.0683 46.2908 36.3196 46.6887C36.571 47.0867 36.9912 47.3472 37.4594 47.3953C45.4788 48.2539 52.6854 45.0033 56.2581 37.2753C58.6493 32.1158 58.8811 26.2151 56.9021 20.8839C56.7265 20.4473 56.3602 20.1155 55.9084 19.9838C55.4566 19.8522 54.9694 19.9353 54.5868 20.2093C52.5482 21.8035 50.1548 22.8819 47.6101 23.3526C43.8534 23.9813 40.5108 24.7479 37.5514 27.6766C35.0048 30.1844 33.6208 33.6416 33.7334 37.2139C33.7493 37.6235 33.9285 38.0097 34.231 38.2862C34.5335 38.5628 34.9341 38.7067 35.3434 38.6859Z" fill="#FAA701"/>
</g>
<defs>
<clipPath id="clip0">
<rect width="92" height="92" fill="white"/>
</clipPath>
</defs>
</svg>
