<svg width="79" height="79" viewBox="0 0 79 79" fill="none" xmlns="http://www.w3.org/2000/svg">
<g clip-path="url(#clip0)">
<path d="M62.9967 21.2441C63.1246 20.3594 63.1889 19.467 63.1889 18.5733C63.1786 9.80504 56.993 2.25769 48.3976 0.524994C39.8023 -1.2077 31.1761 3.35389 27.7692 11.4329C23.5619 8.55583 17.9871 8.68828 13.9205 11.7615C9.85464 14.8353 8.20617 20.1626 9.82635 24.9949C3.8426 27.4432 -0.0484078 33.2868 0.000454942 39.7508C0.0486747 46.2155 4.02648 51.9999 10.0462 54.3582C10.7239 54.6218 11.487 54.2868 11.7513 53.6091C12.0155 52.9309 11.6799 52.1677 11.0023 51.9035C5.77975 49.8583 2.42301 44.7322 2.63711 39.1278C2.85185 33.5227 6.5892 28.6673 11.9525 27.0272C12.3203 26.9141 12.6205 26.646 12.7735 26.2936C12.9272 25.9407 12.9188 25.5388 12.7504 25.1929C12.1467 23.9508 11.8342 22.5878 11.8368 21.2068C11.84 17.508 14.0523 14.1693 17.4573 12.7239C20.8616 11.2786 24.8008 12.0064 27.4638 14.5737C27.795 14.8906 28.2669 15.0128 28.7105 14.8964C29.1541 14.7794 29.5045 14.4399 29.6363 14.0008C32.1187 5.83752 40.6343 1.1197 48.8715 3.3436C57.1087 5.56685 62.0933 13.9294 60.1305 22.2329C60.0327 22.6424 60.1375 23.0745 60.4121 23.394C60.6847 23.7168 61.0974 23.8865 61.5179 23.8486C61.6394 23.8402 61.7474 23.8402 61.8722 23.8402C68.6949 23.8344 74.5964 28.5902 76.0411 35.258C77.4851 41.9258 74.0808 48.6978 67.8675 51.5151C67.4284 51.7035 67.1255 52.1143 67.076 52.5888C67.0265 53.0639 67.2374 53.5281 67.6283 53.8027C68.0186 54.0772 68.5278 54.119 68.9573 53.912C76.106 50.6671 80.1307 42.9751 78.7221 35.2522C77.3128 27.5293 70.8308 21.7552 62.9967 21.2441Z" fill="#26264F"/>
<path d="M63.1889 29.1071H15.7869C15.0598 29.1071 14.4702 29.6966 14.4702 30.4238V43.591C14.4702 44.3182 15.0598 44.9077 15.7869 44.9077H63.1889C63.916 44.9077 64.5056 44.3182 64.5056 43.591V30.4238C64.5056 29.6966 63.916 29.1071 63.1889 29.1071ZM61.8722 42.2743H17.1037V31.7405H61.8722V42.2743Z" fill="#26264F"/>
<path d="M56.6055 33.0573H59.2389V35.6907H56.6055V33.0573Z" fill="#26264F"/>
<path d="M51.3384 33.0573H53.9718V35.6907H51.3384V33.0573Z" fill="#26264F"/>
<path d="M46.0718 33.0573H48.7052V35.6907H46.0718V33.0573Z" fill="#26264F"/>
<path d="M40.8047 33.0573H43.4381V35.6907H40.8047V33.0573Z" fill="#26264F"/>
<path d="M35.5381 33.0573H38.1715V35.6907H35.5381V33.0573Z" fill="#26264F"/>
<path d="M56.6055 38.324H59.2389V40.9574H56.6055V38.324Z" fill="#26264F"/>
<path d="M51.3384 38.324H53.9718V40.9574H51.3384V38.324Z" fill="#26264F"/>
<path d="M46.0718 38.324H48.7052V40.9574H46.0718V38.324Z" fill="#26264F"/>
<path d="M40.8047 38.324H43.4381V40.9574H40.8047V38.324Z" fill="#26264F"/>
<path d="M35.5381 38.324H38.1715V40.9574H35.5381V38.324Z" fill="#26264F"/>
<path d="M30.271 33.0573H32.9044V35.6907H30.271V33.0573Z" fill="#26264F"/>
<path d="M30.271 38.324H32.9044V40.9574H30.271V38.324Z" fill="#26264F"/>
<path d="M23.6875 40.9576C25.8689 40.9576 27.6376 39.1895 27.6376 37.0074C27.6376 34.826 25.8689 33.0573 23.6875 33.0573C21.506 33.0573 19.7373 34.826 19.7373 37.0074C19.7373 39.1895 21.506 40.9576 23.6875 40.9576ZM23.6875 35.6907C24.4146 35.6907 25.0042 36.2803 25.0042 37.0074C25.0042 37.7346 24.4146 38.3241 23.6875 38.3241C22.9603 38.3241 22.3707 37.7346 22.3707 37.0074C22.3707 36.2803 22.9603 35.6907 23.6875 35.6907Z" fill="#26264F"/>
<path d="M63.1889 46.2245H15.7869C15.0598 46.2245 14.4702 46.8141 14.4702 47.5412V60.7084C14.4702 61.4356 15.0598 62.0251 15.7869 62.0251H63.1889C63.916 62.0251 64.5056 61.4356 64.5056 60.7084V47.5412C64.5056 46.8141 63.916 46.2245 63.1889 46.2245ZM61.8722 59.3917H17.1037V48.8579H61.8722V59.3917Z" fill="#26264F"/>
<path d="M56.6055 50.1746H59.2389V52.808H56.6055V50.1746Z" fill="#26264F"/>
<path d="M51.3384 50.1746H53.9718V52.808H51.3384V50.1746Z" fill="#26264F"/>
<path d="M46.0718 50.1746H48.7052V52.808H46.0718V50.1746Z" fill="#26264F"/>
<path d="M40.8047 50.1746H43.4381V52.808H40.8047V50.1746Z" fill="#26264F"/>
<path d="M35.5381 50.1746H38.1715V52.808H35.5381V50.1746Z" fill="#26264F"/>
<path d="M56.6055 55.4415H59.2389V58.075H56.6055V55.4415Z" fill="#26264F"/>
<path d="M51.3384 55.4415H53.9718V58.075H51.3384V55.4415Z" fill="#26264F"/>
<path d="M46.0718 55.4415H48.7052V58.075H46.0718V55.4415Z" fill="#26264F"/>
<path d="M40.8047 55.4415H43.4381V58.075H40.8047V55.4415Z" fill="#26264F"/>
<path d="M35.5381 55.4415H38.1715V58.075H35.5381V55.4415Z" fill="#26264F"/>
<path d="M30.271 50.1746H32.9044V52.808H30.271V50.1746Z" fill="#26264F"/>
<path d="M30.271 55.4415H32.9044V58.075H30.271V55.4415Z" fill="#26264F"/>
<path d="M23.6875 58.0749C25.8689 58.0749 27.6376 56.3068 27.6376 54.1247C27.6376 51.9433 25.8689 50.1746 23.6875 50.1746C21.506 50.1746 19.7373 51.9433 19.7373 54.1247C19.7373 56.3068 21.506 58.0749 23.6875 58.0749ZM23.6875 52.808C24.4146 52.808 25.0042 53.3976 25.0042 54.1247C25.0042 54.8519 24.4146 55.4414 23.6875 55.4414C22.9603 55.4414 22.3707 54.8519 22.3707 54.1247C22.3707 53.3976 22.9603 52.808 23.6875 52.808Z" fill="#FCB148"/>
<path d="M63.1889 63.3418H15.7869C15.0598 63.3418 14.4702 63.9314 14.4702 64.6585V77.8257C14.4702 78.5529 15.0598 79.1424 15.7869 79.1424H63.1889C63.916 79.1424 64.5056 78.5529 64.5056 77.8257V64.6585C64.5056 63.9314 63.916 63.3418 63.1889 63.3418ZM61.8722 76.509H17.1037V65.9752H61.8722V76.509Z" fill="#26264F"/>
<path d="M56.6055 67.2919H59.2389V69.9253H56.6055V67.2919Z" fill="#26264F"/>
<path d="M51.3384 67.2919H53.9718V69.9253H51.3384V67.2919Z" fill="#26264F"/>
<path d="M46.0718 67.2919H48.7052V69.9253H46.0718V67.2919Z" fill="#26264F"/>
<path d="M40.8047 67.2919H43.4381V69.9253H40.8047V67.2919Z" fill="#26264F"/>
<path d="M35.5381 67.2919H38.1715V69.9253H35.5381V67.2919Z" fill="#26264F"/>
<path d="M56.6055 72.5588H59.2389V75.1923H56.6055V72.5588Z" fill="#26264F"/>
<path d="M51.3384 72.5588H53.9718V75.1923H51.3384V72.5588Z" fill="#26264F"/>
<path d="M46.0718 72.5588H48.7052V75.1923H46.0718V72.5588Z" fill="#26264F"/>
<path d="M40.8047 72.5588H43.4381V75.1923H40.8047V72.5588Z" fill="#26264F"/>
<path d="M35.5381 72.5588H38.1715V75.1923H35.5381V72.5588Z" fill="#26264F"/>
<path d="M30.271 67.2919H32.9044V69.9253H30.271V67.2919Z" fill="#26264F"/>
<path d="M30.271 72.5588H32.9044V75.1923H30.271V72.5588Z" fill="#26264F"/>
<path d="M23.6875 75.1922C25.8689 75.1922 27.6376 73.4241 27.6376 71.242C27.6376 69.0606 25.8689 67.2919 23.6875 67.2919C21.506 67.2919 19.7373 69.0606 19.7373 71.242C19.7373 73.4241 21.506 75.1922 23.6875 75.1922ZM23.6875 69.9253C24.4146 69.9253 25.0042 70.5149 25.0042 71.242C25.0042 71.9692 24.4146 72.5588 23.6875 72.5588C22.9603 72.5588 22.3707 71.9692 22.3707 71.242C22.3707 70.5149 22.9603 69.9253 23.6875 69.9253Z" fill="#91B3FA"/>
</g>
<defs>
<clipPath id="clip0">
<rect width="79" height="79" fill="white"/>
</clipPath>
</defs>
</svg>
