<svg width="79" height="79" viewBox="0 0 79 79" fill="none" xmlns="http://www.w3.org/2000/svg">
<g clip-path="url(#clip0)">
<path d="M3.04288 17.4295C2.87199 15.5087 2.98416 13.5741 3.37412 11.6863C3.89737 9.31552 4.92936 7.34789 6.44104 5.83686C8.5545 3.72209 11.5211 2.56275 15.2485 2.39054C17.044 2.32257 18.842 2.4453 20.6117 2.75608L21.0201 0.427521C19.0822 0.0877048 17.1139 -0.0455822 15.1482 0.0289793C10.8039 0.22825 7.31071 1.62051 4.76836 4.16484C2.93335 5.99918 1.68692 8.3581 1.06073 11.1914C0.621943 13.3102 0.495254 15.4817 0.686607 17.6374L3.04288 17.4295Z" fill="#26264F"/>
<path d="M1.46777 22.5988C1.80561 24.0412 2.21603 25.4658 2.69771 26.8673L4.93522 26.1032C4.47993 24.7782 4.09128 23.4308 3.77192 22.0663L1.46777 22.5988Z" fill="#26264F"/>
<path d="M8.98857 35.1555C8.17235 33.6669 7.42343 32.1697 6.7636 30.7062L4.60791 31.6788C5.29282 33.1977 6.06945 34.7503 6.9147 36.2924L8.98857 35.1555Z" fill="#26264F"/>
<path d="M11.1323 43.1118C11.9017 44.2282 12.7212 45.3598 13.5671 46.4723C13.7651 46.7329 13.965 46.9929 14.1669 47.2529L16.0343 45.8019C15.8376 45.5492 15.643 45.2958 15.4503 45.0418C14.6255 43.9577 13.8291 42.8564 13.0795 41.7697L11.1323 43.1118Z" fill="#26264F"/>
<path d="M19.5641 50.0697C19.4454 49.9344 19.3279 49.7998 19.2111 49.6659L17.4263 51.2172C17.5457 51.3544 17.6658 51.4917 17.7865 51.6296C18.4715 52.4095 19.1847 53.1967 19.9059 53.9674C20.2293 54.3131 20.5559 54.6576 20.8858 55.0007L22.5902 53.361C22.2675 53.0258 21.9481 52.6893 21.6327 52.3521C20.9287 51.5992 20.2326 50.8312 19.5641 50.0697Z" fill="#26264F"/>
<path d="M74.8862 46.9189L72.7213 47.8698C74.3313 51.5391 75.4108 55.0396 75.9281 58.2734C76.904 64.3723 75.8258 69.1904 72.809 72.2072C71.3118 73.7044 69.3673 74.7304 67.0282 75.2583C65.1463 75.6819 63.0131 75.7835 60.6878 75.5605C60.1157 75.5057 59.5258 75.4305 58.934 75.3368L58.5645 77.6726C59.2038 77.7736 59.8419 77.8547 60.4621 77.9148C61.3358 77.9986 62.187 78.0401 63.0151 78.0401C64.5386 78.0494 66.0589 77.8904 67.5481 77.5657C70.3307 76.9382 72.6632 75.6984 74.4817 73.8805C78.0567 70.3055 79.3645 64.7794 78.2639 57.9006C77.7142 54.4675 76.578 50.7731 74.8862 46.9189Z" fill="#26264F"/>
<path d="M71.7323 40.6763L69.6782 41.8481C70.3308 42.9923 70.9464 44.1457 71.5073 45.2747L73.6254 44.2229C73.044 43.053 72.4073 41.8594 71.7323 40.6763Z" fill="#26264F"/>
<path d="M66.5218 36.7932L68.4762 35.461C67.5175 34.0542 66.5066 32.6547 65.4713 31.3014L63.5928 32.7372C64.6023 34.0569 65.5881 35.4214 66.5218 36.7932Z" fill="#26264F"/>
<path d="M60.4474 28.8487L62.2441 27.3119C61.1369 26.0173 59.9796 24.7366 58.8037 23.5046L57.0928 25.1377C58.2396 26.338 59.3679 27.587 60.4474 28.8487Z" fill="#26264F"/>
<path d="M55.1542 69.2658L52.8804 69.9164L54.1104 74.2146C50.767 73.1806 47.5318 71.8273 44.4484 70.1731C40.3059 67.96 36.3667 65.3859 32.6762 62.4813C29.9392 60.3375 27.321 58.0466 24.8327 55.619L23.1812 57.3108C25.7301 59.7984 28.4123 62.1448 31.216 64.3407C35.0166 67.3325 39.0733 69.983 43.3392 72.2614C45.9851 73.6722 48.734 74.8797 51.5621 75.874L48.5829 76.7266L49.2335 79.0004L56.1433 77.0228C56.7708 76.8427 57.1337 76.1881 56.9543 75.5606L55.1542 69.2658Z" fill="#26264F"/>
<path d="M25.6014 9.30832L27.9135 8.8141L26.9785 4.43872C29.5664 5.34006 32.0823 6.43539 34.5053 7.71613C38.5936 9.87446 42.4853 12.3865 46.1355 15.2244C47.8571 16.552 49.5898 17.9931 51.2869 19.5054C52.2278 20.3461 53.1753 21.2256 54.1024 22.1217C54.5049 22.5103 54.916 22.9142 55.3238 23.3213L56.9958 21.6486C56.5781 21.2309 56.1578 20.8179 55.7461 20.42C54.7966 19.5028 53.8266 18.6008 52.8613 17.7397C51.1226 16.1898 49.3456 14.713 47.5845 13.3538C45.7977 11.9648 43.9515 10.6504 42.0439 9.41059C43.1636 8.77385 44.288 8.1734 45.3899 7.62573L44.3381 5.50766C43.1287 6.10811 41.8935 6.76927 40.6675 7.47133L41.6209 9.13478C39.6658 7.87977 37.6626 6.70988 35.6098 5.62577C33.7062 4.61886 31.7458 3.72082 29.7399 2.93759L32.665 2.31273L32.1708 0L25.1422 1.50245C24.5035 1.63837 24.0963 2.2672 24.2329 2.90526L25.6014 9.30832Z" fill="#26264F"/>
<path d="M11.3056 78.0726C12.785 78.3795 14.2921 78.5339 15.8031 78.5339C16.4524 78.5339 17.1023 78.5055 17.7516 78.4481L17.5437 76.0925C15.6236 76.2621 13.689 76.1505 11.8005 75.7599C9.43104 75.2373 7.46275 74.206 5.95173 72.6943C3.83695 70.5802 2.67762 67.6136 2.5054 63.8868C2.4381 62.0907 2.56016 60.2933 2.87095 58.5237L0.542384 58.1139C0.202568 60.0518 0.0686214 62.0201 0.143843 63.9858C0.343113 68.3301 1.73471 71.8227 4.27904 74.367C6.11471 76.202 8.47362 77.4478 11.3056 78.0726Z" fill="#26264F"/>
<path d="M26.9816 76.4368L26.2182 74.1986C24.8926 74.6539 23.5452 75.0425 22.1807 75.3626L22.7151 77.6661C24.1569 77.3282 25.5808 76.9178 26.9816 76.4368Z" fill="#26264F"/>
<path d="M35.2706 70.1453C33.782 70.9608 32.2855 71.7091 30.8213 72.3696L31.7939 74.5253C33.3142 73.8404 34.8654 73.0637 36.4075 72.2185L35.2706 70.1453Z" fill="#26264F"/>
<path d="M41.8848 66.0542L43.2262 68.0021C44.3433 67.2327 45.4743 66.4132 46.5874 65.5666C46.8487 65.3687 47.1087 65.1687 47.3687 64.9662L45.917 63.0995C45.6643 63.2955 45.4109 63.4908 45.1569 63.6834C44.0728 64.5082 42.9715 65.306 41.8848 66.0542Z" fill="#26264F"/>
<path d="M54.0822 59.2283C54.4273 58.905 54.7718 58.5783 55.1149 58.2484L53.4752 56.5441C53.14 56.8667 52.8041 57.1861 52.467 57.5015C51.7147 58.2049 50.9467 58.9017 50.1839 59.5707C50.05 59.6889 49.9154 59.8063 49.7808 59.9224L51.3307 61.7093C51.4686 61.5892 51.6065 61.4691 51.7444 61.3484C52.525 60.6615 53.3122 59.9482 54.0822 59.2283Z" fill="#26264F"/>
<path d="M76.5743 22.2813C76.3005 22.1296 75.9765 22.092 75.675 22.1784L69.3808 23.9798L70.0314 26.2536L74.3289 25.0236C73.2956 28.3664 71.9423 31.6015 70.2881 34.6843C68.075 38.8268 65.501 42.766 62.5957 46.4558C60.4525 49.1928 58.1616 51.811 55.7334 54.2993L57.4259 55.9515C59.9128 53.4026 62.2598 50.7203 64.4558 47.9167C67.4475 44.116 70.098 40.0593 72.3764 35.7928C73.7865 33.1475 74.994 30.3987 75.9884 27.5706L76.8416 30.5504L79.1147 29.8998L77.1372 22.99C77.0514 22.6885 76.8488 22.4338 76.5743 22.2813Z" fill="#26264F"/>
<path d="M58.3886 3.20542C64.4869 2.22952 69.3056 3.30835 72.3224 6.32447C73.8189 7.82164 74.845 9.76618 75.3728 12.1053C75.7958 13.9885 75.8981 16.1217 75.6744 18.4463C75.6196 19.0171 75.5444 19.607 75.4507 20.2002L77.7865 20.5697C77.8881 19.929 77.9693 19.2909 78.0287 18.672C78.2761 16.098 78.1587 13.714 77.6796 11.586C77.0521 8.80281 75.8123 6.47029 73.9944 4.65244C70.4195 1.07745 64.8933 -0.230351 58.0145 0.870257C54.5821 1.4199 50.8876 2.55614 47.0342 4.2473L47.9843 6.41288C51.6537 4.80288 55.1541 3.72273 58.3886 3.20542Z" fill="#26264F"/>
<path d="M28.9638 18.6873L27.4264 16.8899C26.1318 17.9971 24.8511 19.1545 23.6191 20.3309L25.2522 22.0412C26.4531 20.8951 27.7015 19.7661 28.9638 18.6873Z" fill="#26264F"/>
<path d="M36.9077 12.6122L35.5761 10.6577C34.1687 11.6171 32.7692 12.628 31.4165 13.6626L32.8523 15.5412C34.1713 14.5323 35.5359 13.5471 36.9077 12.6122Z" fill="#26264F"/>
<path d="M2.7724 54.9274C2.85554 54.9274 2.93934 54.9189 3.0205 54.9011L9.42289 53.5332L8.92867 51.2205L4.5533 52.1555C5.45463 49.5676 6.54996 47.0516 7.8307 44.6294C9.98903 40.5404 12.501 36.6487 15.339 32.9984C16.6659 31.2782 18.107 29.5448 19.62 27.8478C20.46 26.9068 21.3402 25.9593 22.2363 25.0316C22.6282 24.6264 23.0327 24.2147 23.4365 23.8109L21.7645 22.1382C21.3508 22.5519 20.9364 22.9729 20.5352 23.3886C19.6187 24.3381 18.7174 25.3094 17.8569 26.2727C16.3056 28.0127 14.8289 29.789 13.4703 31.5501C10.5492 35.3079 7.96267 39.3151 5.741 43.5241C4.73409 45.4284 3.83671 47.3882 3.05283 49.3941L2.42796 46.469L0.115234 46.9632L1.61702 53.9918C1.73315 54.5368 2.21483 54.9274 2.7724 54.9274Z" fill="#26264F"/>
<path d="M48.9038 42.9013V39.032C46.5389 40.2421 43.179 40.8657 39.6977 40.8657C36.2158 40.8657 32.6876 40.2415 30.4917 39.032V43.0497C30.4917 43.3315 31.073 44.0019 32.7233 44.599C34.5609 45.2635 36.997 45.629 39.6403 45.629C42.2836 45.629 44.7686 45.2635 46.6062 44.599C48.2565 44.0019 48.9038 43.3321 48.9038 43.0491V42.9013Z" fill="#26264F"/>
<path d="M48.9038 31.9025C46.5389 33.1126 43.179 33.7362 39.6977 33.7362C36.2158 33.7362 32.6876 33.1133 30.4917 31.9025V35.9202C30.4917 36.202 31.073 36.8724 32.7233 37.4695C34.5609 38.1346 36.997 38.5002 39.6403 38.5002C42.2836 38.5002 44.7686 38.134 46.6062 37.4695C48.2565 36.8724 48.9038 36.2026 48.9038 35.9202V31.9025Z" fill="#26264F"/>
<path d="M30.4097 28.7906C30.4097 29.0723 31.0246 29.7421 32.6749 30.3392C34.5132 31.0043 36.981 31.3712 39.6243 31.3712C42.2683 31.3712 44.736 31.0043 46.5744 30.3392C48.2246 29.7421 48.8396 29.0723 48.8396 28.7906C48.8396 28.5088 48.2246 27.8391 46.5744 27.2413C44.736 26.5768 42.2683 26.21 39.6243 26.21C36.981 26.21 34.5132 26.5768 32.6749 27.2413C31.0246 27.8391 30.4097 28.5088 30.4097 28.7906Z" fill="#91B3FA"/>
<path d="M48.9038 50.2287V46.1615C46.5389 47.3716 43.179 47.9945 39.6977 47.9945C36.2158 47.9945 32.6876 47.3716 30.4917 46.1615V50.2287C30.4917 50.5105 31.073 51.1809 32.7233 51.778C34.5853 52.4517 37.0657 52.8146 39.7459 52.808C41.2754 52.808 42.8023 52.6688 44.3067 52.3917C47.53 51.7741 48.9038 50.6774 48.9038 50.2287Z" fill="#FCB148"/>
</g>
<defs>
<clipPath id="clip0">
<rect width="79" height="79" fill="white"/>
</clipPath>
</defs>
</svg>
