<svg width="81" height="81" viewBox="0 0 81 81" fill="none" xmlns="http://www.w3.org/2000/svg">
<g clip-path="url(#clip0)">
<path d="M4.51709 64.462H41.0228C37.8084 61.4342 35.781 57.1394 35.781 52.3778C35.781 44.6284 41.1029 38.1462 48.2787 36.3056V20.2601H34.7674C33.527 20.2601 32.5133 19.2598 32.5133 18.006V4.50832H4.51709V64.462Z" fill="white"/>
<path d="M45.1043 15.7788L37.0215 7.69595V15.7788H45.1043Z" fill="#FCB148"/>
<path d="M66.3249 61.3676C65.6847 62.3546 64.951 63.2616 64.1109 64.1152C63.2705 64.9555 62.3635 65.689 61.3633 66.3292L70.4998 75.4657C71.8202 76.7861 74.1409 76.7861 75.4614 75.4657C76.7418 74.0518 76.9019 72.0245 75.4614 70.5041L66.3249 61.3676Z" fill="#FCB148"/>
<path d="M24.4166 17.1692H10.2785C9.16273 17.1692 8.27441 16.2809 8.27441 15.1652C8.27441 14.0504 9.17517 13.1611 10.2785 13.1611H24.4166C25.5314 13.1611 26.4206 14.0619 26.4206 15.1652C26.4206 16.28 25.5199 17.1692 24.4166 17.1692Z" fill="#26264F" stroke="white" stroke-width="0.5"/>
<path d="M42.3293 29.1201H10.2785C9.16371 29.1201 8.27441 28.2192 8.27441 27.1161C8.27441 26.0013 9.17517 25.112 10.2785 25.112H42.3293C43.4441 25.112 44.3334 26.0128 44.3334 27.1161C44.3334 28.2309 43.4326 29.1201 42.3293 29.1201Z" fill="#26264F" stroke="white" stroke-width="0.5"/>
<path d="M10.2653 37.0493H31.4726C32.5883 37.0493 33.4766 37.9377 33.4766 39.0534C33.4766 40.1682 32.5759 41.0574 31.4726 41.0574H10.2653C9.15051 41.0574 8.26123 40.1567 8.26123 39.0534C8.26123 37.9386 9.16198 37.0493 10.2653 37.0493Z" fill="#26264F" stroke="white" stroke-width="0.5"/>
<path d="M10.2785 48.9866H24.4166C25.5199 48.9866 26.4206 49.8759 26.4206 50.9907C26.4206 52.1055 25.5199 52.9947 24.4166 52.9947H10.2785C9.16273 52.9947 8.27441 52.1064 8.27441 50.9907C8.27441 49.8759 9.17517 48.9866 10.2785 48.9866Z" fill="#26264F" stroke="white" stroke-width="0.5"/>
<path d="M52.3998 64.6089C59.1548 64.6089 64.6307 59.1329 64.6307 52.378C64.6307 45.623 59.1548 40.1471 52.3998 40.1471C45.6449 40.1471 40.1689 45.623 40.1689 52.378C40.1689 59.1329 45.6449 64.6089 52.3998 64.6089Z" fill="white"/>
<path d="M52.3999 59.8872C56.5471 59.8872 59.9091 56.5252 59.9091 52.378C59.9091 48.2307 56.5471 44.8687 52.3999 44.8687C48.2526 44.8687 44.8906 48.2307 44.8906 52.378C44.8906 56.5252 48.2526 59.8872 52.3999 59.8872Z" fill="#56ACE0"/>
<path d="M68.0595 56.8829L68.0182 57.0249L68.1228 57.1295L78.4593 67.466C81.4834 70.5031 81.4829 75.4273 78.4727 78.4505L78.4711 78.4522C75.6695 81.3184 70.853 81.7088 67.5014 78.4488C67.501 78.4484 67.5007 78.4481 67.5003 78.4477L57.1925 68.1399L57.0879 68.0353L56.9459 68.0766C55.5 68.4971 53.9763 68.7335 52.3875 68.7335L27.1473 68.7268L10.0374 68.7222L4.41001 68.7206L2.83441 68.7202L2.41942 68.7201L2.31303 68.7201L2.28611 68.7201H2.27933H2.27764C2.27726 68.7201 2.27707 68.7201 2.277 68.9701L2.27707 68.7201C1.16223 68.7201 0.272949 67.8193 0.272949 66.716V2.25405C0.272949 1.13928 1.1737 0.25 2.277 0.25H34.7547C35.303 0.25 35.8127 0.464498 36.1786 0.8304L51.9409 16.5927C52.3125 16.9897 52.5242 17.502 52.5242 18.0194V35.7721V36.0158L52.7679 36.022C61.6097 36.2453 68.7164 43.458 68.7164 52.3512C68.7164 53.9131 68.4803 55.4368 68.0595 56.8829ZM37.199 7.50577L36.7722 7.079V7.68255V15.7654V16.0154H37.0222H45.105H45.7086L45.2818 15.5886L37.199 7.50577ZM4.51785 4.25831H4.26785V4.50831V64.1988V64.4488V64.462H4.51785V64.6988H41.0502H41.6802L41.2216 64.2668C38.0546 61.2837 36.0584 57.0537 36.0584 52.3646C36.0584 44.7327 41.2996 38.3346 48.3678 36.5347L48.5561 36.4867V36.2924V20.2603V20.0103H48.3061H34.7814C33.6666 20.0103 32.7773 19.1095 32.7773 18.0062V4.50831V4.25831H32.5273H4.51785ZM75.6388 75.6158L75.6396 75.615C77.0966 74.1439 77.0966 71.7726 75.6396 70.3015L75.6388 70.3007L66.5023 61.1642L66.2835 60.9454L66.1156 61.2052C64.8414 63.1756 63.1728 64.8312 61.2279 66.0928L60.9687 66.2609L61.1871 66.4793L70.3236 75.6158C71.7417 77.0339 74.2207 77.0339 75.6388 75.6158ZM39.9198 52.3646C39.9198 59.2652 45.5139 64.8455 52.4007 64.8455C59.2742 64.8455 64.8816 59.2654 64.8816 52.3646C64.8816 45.4641 59.3012 39.8837 52.4007 39.8837C45.5003 39.8837 39.9198 45.4641 39.9198 52.3646Z" fill="#26264F" stroke="white" stroke-width="0.5"/>
</g>
<defs>
<clipPath id="clip0">
<rect width="81" height="81" fill="white"/>
</clipPath>
</defs>
</svg>
