<svg width="84" height="84" viewBox="0 0 84 84" fill="none" xmlns="http://www.w3.org/2000/svg">
<path d="M5.57893 55.9197C8.08401 55.9197 10.2083 57.5795 10.9105 59.8572H13.3762L21.4093 51.8241V32.1772L13.3762 24.1441H10.9105C10.2083 26.4218 8.08401 28.0816 5.57893 28.0816C2.50309 28.0816 0.000816345 25.5793 0.000816345 22.5035C0.000816345 19.4276 2.50309 16.9253 5.57893 16.9253C8.08401 16.9253 10.2083 18.5852 10.9105 20.8628H14.0559C14.491 20.8628 14.9082 21.0358 15.216 21.3434L23.338 29.4656L40.3602 20.0343V10.9106C38.0827 10.2085 36.4227 8.08417 36.4227 5.5791C36.4227 2.50326 38.925 0.000976562 42.0008 0.000976562C45.0767 0.000976562 47.5789 2.50326 47.5789 5.5791C47.5789 8.08417 45.919 10.2085 43.6414 10.9106V20.0343L60.6636 29.4656L68.7858 21.3434C69.0936 21.0358 69.5108 20.8628 69.9459 20.8628H73.0913C73.7935 18.5852 75.9178 16.9253 78.4229 16.9253C81.4987 16.9253 84.001 19.4276 84.001 22.5035C84.001 25.5793 81.4987 28.0816 78.4229 28.0816C75.9178 28.0816 73.7935 26.4218 73.0913 24.1441H70.6256L62.5925 32.1772V51.8242L70.6256 59.8574H73.0913C73.7935 57.5797 75.9178 55.9199 78.4229 55.9199C81.4987 55.9199 84.001 58.4222 84.001 61.498C84.001 64.5738 81.4987 67.0761 78.4229 67.0761C75.9178 67.0761 73.7935 65.4163 73.0913 63.1386H69.9459C69.5108 63.1386 69.0936 62.9657 68.7858 62.6581L60.6637 54.536L58.6351 55.66C57.8424 56.099 56.8442 55.8127 56.4048 55.0202C55.9656 54.2276 56.2521 53.2291 57.0447 52.7899L59.311 51.5342V34.2853L43.6413 42.9673V60.2159L45.6985 59.0761C46.4912 58.6371 47.4897 58.9234 47.9287 59.716C48.3679 60.5085 48.0815 61.507 47.2889 61.9462L43.6414 63.9671V73.091C45.919 73.7932 47.5789 75.9174 47.5789 78.4225C47.5789 81.4984 45.0767 84.0006 42.0008 84.0006C38.925 84.0006 36.4227 81.4984 36.4227 78.4225C36.4227 75.9174 38.0827 73.7932 40.3602 73.091V63.9671L23.338 54.5358L15.216 62.6581C14.9082 62.9657 14.491 63.1386 14.0559 63.1386H10.9105C10.2083 65.4163 8.08401 67.0761 5.57893 67.0761C2.50309 67.0761 0.000816345 64.5738 0.000816345 61.498C0.000984192 58.4222 2.50309 55.9197 5.57893 55.9197ZM5.57893 20.2068C4.31237 20.2068 3.28206 21.2371 3.28206 22.5036C3.28206 23.7702 4.31237 24.8005 5.57893 24.8005C6.8455 24.8005 7.87581 23.7702 7.87581 22.5036C7.87581 21.2371 6.8455 20.2068 5.57893 20.2068ZM78.4227 24.8005C79.6892 24.8005 80.7196 23.7702 80.7196 22.5036C80.7196 21.2371 79.6892 20.2068 78.4227 20.2068C77.1561 20.2068 76.1258 21.2371 76.1258 22.5036C76.1258 23.7702 77.1561 24.8005 78.4227 24.8005ZM78.4227 63.7947C79.6892 63.7947 80.7196 62.7644 80.7196 61.4978C80.7196 60.2313 79.6892 59.201 78.4227 59.201C77.1561 59.201 76.1258 60.2313 76.1258 61.4978C76.1258 62.7644 77.1561 63.7947 78.4227 63.7947ZM44.2977 5.5791C44.2977 4.31254 43.2674 3.28223 42.0008 3.28223C40.7342 3.28223 39.7039 4.31254 39.7039 5.5791C39.7039 6.84566 40.7342 7.87598 42.0008 7.87598C43.2674 7.87598 44.2977 6.84566 44.2977 5.5791ZM39.7039 78.4224C39.7039 79.6889 40.7342 80.7192 42.0008 80.7192C43.2674 80.7192 44.2977 79.6889 44.2977 78.4224C44.2977 77.1558 43.2674 76.1255 42.0008 76.1255C40.7342 76.1255 39.7039 77.1558 39.7039 78.4224ZM24.6906 51.5342L40.3604 60.216V42.9673H40.3602L34.8374 39.9074C34.0448 39.4682 33.7583 38.4697 34.1975 37.6771C34.6367 36.8847 35.6347 36.5982 36.4278 37.0373L42.001 40.1249L57.5667 31.5008L42.001 22.8765L24.6906 32.4675V51.5342ZM5.57893 63.7947C6.8455 63.7947 7.87581 62.7644 7.87581 61.4978C7.87581 60.2313 6.8455 59.201 5.57893 59.201C4.31237 59.201 3.28206 60.2313 3.28206 61.4978C3.28206 62.7644 4.31237 63.7947 5.57893 63.7947Z" fill="#26264F"/>
</svg>
