<svg width="79" height="79" viewBox="0 0 79 79" fill="none" xmlns="http://www.w3.org/2000/svg">
<g clip-path="url(#clip0)">
<path d="M49.6935 28.0323V22.9355H44.5967V0H67.5322V22.9355H58.6128L49.6935 28.0323Z" fill="#FCB148"/>
<path d="M35.6774 35.6774L31.8548 33.129L28.0322 35.6774L30.5806 39.5L28.0322 49.6936L31.8548 53.5161L35.6774 49.6936L33.129 39.5L35.6774 35.6774Z" fill="#56ACE0"/>
<path d="M5.09668 63.7097H7.64507V66.2581H5.09668V63.7097Z" fill="#26264F"/>
<path d="M10.1934 63.7097H12.7417V66.2581H10.1934V63.7097Z" fill="#26264F"/>
<path d="M15.2905 63.7097H17.8389V66.2581H15.2905V63.7097Z" fill="#26264F"/>
<path d="M54.7905 5.09677H57.3389V7.64516H54.7905V5.09677Z" fill="#26264F"/>
<path d="M49.6934 5.09677H52.2417V7.64516H49.6934V5.09677Z" fill="#26264F"/>
<path d="M59.8872 5.09677H62.4356V7.64516H59.8872V5.09677Z" fill="#26264F"/>
<path d="M72.629 15.2903H70.0806V17.8387H72.629C74.7363 17.8387 76.4516 19.554 76.4516 21.6613V61.1613H23.4631L20.9147 58.6129H2.54839V21.6613C2.54839 19.554 4.2637 17.8387 6.37097 17.8387H21.6613V17.9103C21.6613 18.8927 21.8946 19.8788 22.3326 20.7591L24.2097 24.5102C24.5382 25.1678 24.9781 25.739 25.4839 26.2305V28.2425L16.6983 29.839C13.6683 30.3921 11.4677 33.027 11.4677 36.108V56.0645H52.2419V36.108C52.2419 33.027 50.0413 30.3909 47.0114 29.8403L38.2258 28.2438V26.2317C38.7316 25.7402 39.1715 25.1691 39.5 24.5114L41.3771 20.7591C41.8151 19.8788 42.0484 18.8927 42.0484 17.9103V11.7682C42.0484 9.59876 40.8825 7.64018 38.9904 6.60677L37.6802 5.29711C35.9082 3.52456 33.5509 2.54839 31.0442 2.54839C25.8715 2.54839 21.6613 6.75733 21.6613 11.9313H24.2097C24.2097 8.16218 27.2751 5.09677 31.0442 5.09677C32.8702 5.09677 34.5868 5.80791 35.8778 7.09828L37.4705 8.69226L37.6565 8.78559C38.7926 9.35362 39.5 10.4965 39.5 11.7682V17.9103C39.5 18.5001 39.3613 19.0911 39.0975 19.62L37.2204 23.371C36.5684 24.6751 35.2593 25.4839 33.8016 25.4839H29.9068C28.4491 25.4839 27.1401 24.6751 26.488 23.371L24.611 19.62C24.3484 19.0911 24.2097 18.5001 24.2097 17.9103V15.2903H6.37097C2.85823 15.2903 0 18.1485 0 21.6613V64.9839C0 68.4966 2.85823 71.3548 6.37097 71.3548H22.9355V76.4516H17.8387V79H61.1613V76.4516H56.0645V71.3548H72.629C76.1418 71.3548 79 68.4966 79 64.9839V21.6613C79 18.1485 76.1418 15.2903 72.629 15.2903ZM26.4395 30.6597L29.7756 33.162L26.3848 35.8746L25.5424 30.8239L26.4395 30.6597ZM49.6935 36.108V53.5161H44.5968V36.9516H42.0484V53.5161H21.6613V36.9516H19.1129V53.5161H14.0161V36.108C14.0161 34.2595 15.3364 32.678 17.1543 32.347L23.035 31.2775L24.5842 40.577L31.8548 34.761L39.1255 40.5782L40.6746 31.2787L46.5553 32.3482C48.3733 32.678 49.6935 34.2607 49.6935 36.108ZM37.2702 30.6597L38.1673 30.8227L37.3249 35.8734L33.9341 33.1608L37.2702 30.6597ZM33.8016 28.0323C34.4505 28.0323 35.0795 27.929 35.6774 27.7467V28.6694L31.8548 31.5363L28.0323 28.6694V27.7454C28.6302 27.929 29.2579 28.0323 29.9081 28.0323H33.8016ZM72.629 68.8064H28.0323V71.3548H53.5161V76.4516H25.4839V68.8064H6.37097C4.2637 68.8064 2.54839 67.0911 2.54839 64.9839V61.1613H19.8595L22.4079 63.7097H76.4516V64.9839C76.4516 67.0911 74.7363 68.8064 72.629 68.8064Z" fill="#26264F"/>
<path d="M49.6934 10.1936H62.4353V12.7419H49.6934V10.1936Z" fill="#26264F"/>
<path d="M49.6934 15.2903H62.4353V17.8387H49.6934V15.2903Z" fill="#26264F"/>
</g>
<defs>
<clipPath id="clip0">
<rect width="79" height="79" fill="white"/>
</clipPath>
</defs>
</svg>
