<svg width="88" height="88" viewBox="0 0 88 88" fill="none" xmlns="http://www.w3.org/2000/svg">
<path d="M71.5 55C68.5086 55 65.5843 55.8871 63.097 57.549C60.6097 59.211 58.6711 61.5732 57.5263 64.3369C56.3816 67.1006 56.082 70.1418 56.6656 73.0757C57.2492 76.0097 58.6897 78.7047 60.805 80.82C62.9203 82.9352 65.6153 84.3758 68.5493 84.9594C71.4832 85.543 74.5244 85.2434 77.2881 84.0987C80.0518 82.9539 82.414 81.0153 84.076 78.528C85.7379 76.0407 86.625 73.1164 86.625 70.125C86.6224 66.1144 85.0281 62.2688 82.1922 59.4328C79.3562 56.5969 75.5106 55.0025 71.5 55ZM71.5 82.5C69.0525 82.5 66.6599 81.7742 64.6248 80.4144C62.5898 79.0546 61.0036 77.1219 60.067 74.8607C59.1304 72.5995 58.8853 70.1113 59.3628 67.7107C59.8403 65.3102 61.0189 63.1052 62.7496 61.3746C64.4802 59.6439 66.6852 58.4653 69.0858 57.9878C71.4863 57.5103 73.9745 57.7554 76.2357 58.692C78.4969 59.6286 80.4296 61.2148 81.7894 63.2498C83.1492 65.2849 83.875 67.6774 83.875 70.125C83.8699 73.4055 82.5645 76.5502 80.2448 78.8698C77.9252 81.1895 74.7805 82.4949 71.5 82.5Z" fill="#26264F"/>
<path d="M72.875 60.5H70.125V63.25C69.3957 63.25 68.6962 63.5397 68.1805 64.0555C67.6647 64.5712 67.375 65.2707 67.375 66V68.75C67.375 69.4793 67.6647 70.1788 68.1805 70.6945C68.6962 71.2103 69.3957 71.5 70.125 71.5H72.875V74.25H67.375V77H70.125V79.75H72.875V77C73.6043 77 74.3038 76.7103 74.8195 76.1945C75.3353 75.6788 75.625 74.9793 75.625 74.25V71.5C75.625 70.7707 75.3353 70.0712 74.8195 69.5555C74.3038 69.0397 73.6043 68.75 72.875 68.75H70.125V66H75.625V63.25H72.875V60.5Z" fill="#FCB148"/>
<path d="M81.125 33H61.875C60.782 33.0033 59.7347 33.4389 58.9618 34.2118C58.1889 34.9847 57.7533 36.032 57.75 37.125V48.125C57.7533 49.218 58.1889 50.2653 58.9618 51.0382C59.7347 51.8111 60.782 52.2467 61.875 52.25H81.125C82.218 52.2467 83.2653 51.8111 84.0382 51.0382C84.8111 50.2653 85.2467 49.218 85.25 48.125V37.125C85.2467 36.032 84.8111 34.9847 84.0382 34.2118C83.2653 33.4389 82.218 33.0033 81.125 33ZM82.5 44H78.375C78.0103 44 77.6606 43.8551 77.4027 43.5973C77.1449 43.3394 77 42.9897 77 42.625C77 42.2603 77.1449 41.9106 77.4027 41.6527C77.6606 41.3949 78.0103 41.25 78.375 41.25H82.5V44ZM82.5 38.5H78.375C77.281 38.5 76.2318 38.9346 75.4582 39.7082C74.6846 40.4818 74.25 41.531 74.25 42.625C74.25 43.719 74.6846 44.7682 75.4582 45.5418C76.2318 46.3154 77.281 46.75 78.375 46.75H82.5V48.125C82.5 48.4897 82.3551 48.8394 82.0973 49.0973C81.8394 49.3551 81.4897 49.5 81.125 49.5H61.875C61.5103 49.5 61.1606 49.3551 60.9027 49.0973C60.6449 48.8394 60.5 48.4897 60.5 48.125V37.125C60.5 36.7603 60.6449 36.4106 60.9027 36.1527C61.1606 35.8949 61.5103 35.75 61.875 35.75H81.125C81.4897 35.75 81.8394 35.8949 82.0973 36.1527C82.3551 36.4106 82.5 36.7603 82.5 37.125V38.5Z" fill="#26264F"/>
<path d="M83.875 8.25H77V4.125C77 3.76033 76.8551 3.41059 76.5973 3.15273C76.3394 2.89487 75.9897 2.75 75.625 2.75H67.375C67.0103 2.75 66.6606 2.89487 66.4027 3.15273C66.1449 3.41059 66 3.76033 66 4.125V8.25H59.125C58.7603 8.25 58.4106 8.39487 58.1527 8.65273C57.8949 8.91059 57.75 9.26033 57.75 9.625V28.875C57.75 29.2397 57.8949 29.5894 58.1527 29.8473C58.4106 30.1051 58.7603 30.25 59.125 30.25H83.875C84.2397 30.25 84.5894 30.1051 84.8473 29.8473C85.1051 29.5894 85.25 29.2397 85.25 28.875V9.625C85.25 9.26033 85.1051 8.91059 84.8473 8.65273C84.5894 8.39487 84.2397 8.25 83.875 8.25ZM68.75 5.5H74.25V8.25H68.75V5.5ZM79.3375 11L78.3613 11.6463C76.3308 13.0045 73.9429 13.7295 71.5 13.7295C69.0571 13.7295 66.6692 13.0045 64.6387 11.6463L63.6625 11H79.3375ZM82.5 27.5H60.5V12.1962L63.1125 13.9288C65.5921 15.5958 68.5121 16.4862 71.5 16.4862C74.4879 16.4862 77.4079 15.5958 79.8875 13.9288L82.5 12.1962V27.5Z" fill="#56ACE0"/>
<path d="M22 23.375H24.75V26.125H22V23.375Z" fill="#26264F"/>
<path d="M22 16.5V20.625H24.75V17.875H55V15.125H23.375C23.0103 15.125 22.6606 15.2699 22.4027 15.5277C22.1449 15.7856 22 16.1353 22 16.5Z" fill="#26264F"/>
<path d="M44 42.625H46.75V45.375H44V42.625Z" fill="#26264F"/>
<path d="M49.5 42.625H55V45.375H49.5V42.625Z" fill="#26264F"/>
<path d="M42.625 68.75H45.375V71.5H42.625V68.75Z" fill="#26264F"/>
<path d="M48.125 68.75H53.625V71.5H48.125V68.75Z" fill="#26264F"/>
<path d="M70.125 19.25H72.875V22H70.125V19.25Z" fill="#26264F"/>
<path d="M37.3175 66.495C39.8676 62.1791 41.2247 57.2629 41.25 52.25C41.25 38.5962 32.615 27.5 22 27.5C11.385 27.5 2.75 38.5962 2.75 52.25C2.7768 57.2602 4.139 62.1727 6.69625 66.4812C5.47276 67.3735 4.47752 68.5424 3.79171 69.8925C3.10591 71.2426 2.74897 72.7357 2.75 74.25V83.875C2.75 84.2397 2.89487 84.5894 3.15273 84.8473C3.41059 85.1051 3.76033 85.25 4.125 85.25H39.875C40.2397 85.25 40.5894 85.1051 40.8473 84.8473C41.1051 84.5894 41.25 84.2397 41.25 83.875V74.25C41.2506 72.7392 40.8948 71.2495 40.2115 69.9021C39.5282 68.5546 38.5367 67.3873 37.3175 66.495ZM5.5 52.25C5.5 40.1225 12.8975 30.25 22 30.25C31.1025 30.25 38.5 40.1225 38.5 52.25C38.4757 57.2024 37.014 62.0411 34.2925 66.1788C34.3481 65.6627 34.3757 65.144 34.375 64.625C34.4956 60.2161 33.4269 55.856 31.2813 52.0025C31.5079 51.1876 31.6236 50.3458 31.625 49.5V41.25C31.6248 40.9429 31.5217 40.6448 31.3324 40.403C31.143 40.1613 30.8781 39.99 30.58 39.9163L19.58 37.1663C19.2609 37.0856 18.9234 37.1247 18.6313 37.2763L13.1313 40.0263C12.9022 40.1376 12.7094 40.3117 12.5755 40.5284C12.4416 40.745 12.3721 40.9953 12.375 41.25V49.5C12.3765 50.3458 12.4921 51.1876 12.7188 52.0025C10.5731 55.856 9.50442 60.2161 9.625 64.625C9.62432 65.1349 9.65186 65.6444 9.7075 66.1513C6.99165 62.0212 5.53026 57.1929 5.5 52.25ZM16.5 57.3925V61.1875L12.3888 64.2675C12.3709 61.1222 12.9786 58.0047 14.1763 55.0962C14.8228 55.9812 15.6074 56.7565 16.5 57.3925ZM15.125 49.5V42.1025L19.415 39.9575L28.875 42.3225V49.5C28.875 51.3234 28.1507 53.072 26.8614 54.3614C25.5721 55.6507 23.8234 56.375 22 56.375C20.1766 56.375 18.428 55.6507 17.1386 54.3614C15.8493 53.072 15.125 51.3234 15.125 49.5ZM18.7 62.975C18.8697 62.8459 19.0075 62.6796 19.1028 62.4889C19.1982 62.2982 19.2485 62.0882 19.25 61.875V58.7262C21.0448 59.2579 22.9552 59.2579 24.75 58.7262V61.875C24.7515 62.0882 24.8018 62.2982 24.8972 62.4889C24.9925 62.6796 25.1303 62.8459 25.3 62.975L29.1225 65.8487L22 69.9187L14.8775 65.8487L18.7 62.975ZM27.5 61.1875V57.3925C28.3926 56.7565 29.1772 55.9812 29.8238 55.0962C31.0215 58.0047 31.6291 61.1222 31.6113 64.2675L27.5 61.1875ZM38.5 82.5H5.5V74.25C5.50204 73.1966 5.74613 72.1577 6.21341 71.2137C6.68068 70.2696 7.35866 69.4455 8.195 68.805C9.15309 70.1411 10.24 71.3799 11.44 72.5037C11.6606 72.7103 11.9432 72.8383 12.2439 72.8682C12.5447 72.898 12.8468 72.8279 13.1038 72.6687C13.3593 72.5073 13.5553 72.2669 13.662 71.9841C13.7687 71.7012 13.7803 71.3913 13.695 71.1012L13.64 70.95C13.3238 69.9325 13.0075 68.8738 12.7738 67.8013L21.3125 72.6962C21.5227 72.8134 21.7594 72.8749 22 72.8749C22.2407 72.8749 22.4773 72.8134 22.6875 72.6962L31.24 67.8013C30.9925 68.9563 30.6625 70.0562 30.3325 71.1012C30.2701 71.307 30.2569 71.5246 30.2939 71.7364C30.3309 71.9482 30.417 72.1484 30.5453 72.3209C30.6737 72.4934 30.8407 72.6334 31.033 72.7296C31.2253 72.8258 31.4375 72.8756 31.6525 72.875C32.0005 72.877 32.3357 72.7439 32.5875 72.5037C33.7797 71.3813 34.8617 70.1473 35.8188 68.8187C36.652 69.4581 37.3271 70.2803 37.792 71.2221C38.2569 72.1638 38.4991 73.1998 38.5 74.25V82.5Z" fill="#26264F"/>
<path d="M17.875 44H20.625V46.75H17.875V44Z" fill="#26264F"/>
<path d="M23.375 44H26.125V46.75H23.375V44Z" fill="#26264F"/>
</svg>
