<svg width="97" height="97" viewBox="0 0 97 97" fill="none" xmlns="http://www.w3.org/2000/svg">
<path d="M90.1295 7.06453H59.5358C57.9551 2.938 53.9521 0 49.2758 0H28.7556C22.7012 0 17.7747 4.92652 17.7747 10.9809V23.45C16.5507 24.5046 15.9816 26.1542 16.2828 27.8148L17.0894 32.2537C17.3795 33.7782 18.1892 34.5619 18.8167 34.9504C19.519 35.3848 20.2983 35.5284 21.0139 35.5321V36.321C21.0139 40.3232 23.3488 44.7339 27.4198 48.423C28.1865 49.1172 28.9835 49.7573 29.7961 50.3361V52.7161C29.7961 53.4413 29.2788 54.0637 28.5654 54.1962C28.5321 54.2021 28.4995 54.2095 28.467 54.2176C28.4426 54.2243 26.0034 54.86 22.8145 55.7643H12.3953C11.2238 55.7643 10.0937 56.2565 9.29521 57.1135C8.4967 57.9704 8.08671 59.1331 8.17034 60.3016L8.19846 60.7027C3.53835 63.0398 0.60627 67.23 0.326531 71.9922C0.325791 72.0122 0.325051 72.0322 0.324311 72.0521L0.000908241 91.6109C-0.016853 93.0452 0.529305 94.3972 1.53651 95.4178C2.5452 96.4383 3.88988 97 5.32484 97H72.7073C74.1415 97 75.4869 96.4383 76.4948 95.4178C77.5028 94.3972 78.049 93.0459 78.0312 91.605L77.7078 72.0521C77.707 72.0322 77.7063 72.0122 77.7048 71.9922C77.4177 67.0923 74.3228 62.7985 69.4251 60.5051C69.3356 60.4629 69.2416 60.42 69.1447 60.3763L69.1498 60.3016C69.2327 59.1331 68.8227 57.9712 68.025 57.1135C67.2264 56.2565 66.0964 55.7643 64.9249 55.7643H55.2176C52.0295 54.86 49.5895 54.2243 49.5651 54.2184C49.5326 54.2095 49.5 54.2021 49.4667 54.1962C48.7533 54.0637 48.236 53.4413 48.236 52.7161V50.3368C49.0486 49.7573 49.8456 49.1172 50.6123 48.423C53.1995 46.0786 55.0859 43.4425 56.1168 40.8049H65.3489L63.7364 47.3137C63.4677 48.3994 63.8984 49.4961 64.8339 50.1081C65.2734 50.396 65.7663 50.5388 66.257 50.5388C66.812 50.5388 67.3641 50.3568 67.8348 49.9949L79.7984 40.8049H90.1295C93.8735 40.8049 96.9188 37.7596 96.9188 34.0157V13.8538C96.9188 10.1106 93.8735 7.06453 90.1295 7.06453ZM57.0211 25.9048C57.5643 25.7197 58.0787 25.6435 58.4139 25.6132C58.8602 26.0091 59.0703 26.6611 58.9534 27.3064L58.1512 31.723C58.0343 32.3395 57.7974 32.486 57.7197 32.5341C57.5547 32.6363 57.3112 32.6888 57.0196 32.6918L57.0211 25.9048ZM20.6165 10.9809C20.6165 6.49321 24.2679 2.8418 28.7556 2.8418H49.2765C53.7642 2.8418 57.4156 6.49321 57.4156 10.9809V22.8861C56.7125 23.0104 55.837 23.2487 54.9823 23.7046V15.0467C54.9823 11.9333 52.4491 9.40013 49.3357 9.40013H45.4956C44.1642 9.40013 42.8639 9.86414 41.8331 10.7063L41.4571 11.0142C40.7703 11.5759 39.903 11.8852 39.0157 11.8852C38.1284 11.8852 37.2618 11.5759 36.575 11.0149L36.1983 10.7063C35.1681 9.86414 33.8671 9.40013 32.5358 9.40013H28.6964C25.583 9.40013 23.0498 11.9326 23.0498 15.0467V23.7038C22.195 23.2487 21.3196 23.0097 20.6165 22.8861V10.9809ZM20.3124 32.5341C20.2347 32.486 19.9978 32.3395 19.8831 31.7349L19.0787 27.3072C18.9618 26.6618 19.1719 26.0106 19.6167 25.6139C19.952 25.6443 20.467 25.719 21.011 25.904L21.0124 32.6918C20.7216 32.6888 20.4781 32.6363 20.3124 32.5341ZM7.74037 93.1288C7.74037 93.4855 7.78921 93.8304 7.8795 94.1582H5.32484C4.65583 94.1582 4.02901 93.8962 3.55834 93.4204C3.0884 92.9445 2.83456 92.314 2.84197 91.6516L3.16537 72.1298C3.37554 68.7182 5.26637 65.7602 8.42121 63.8257L10.1559 88.1653C10.1877 88.6123 10.2898 89.0393 10.4497 89.4367C8.88078 89.931 7.74037 91.3993 7.74037 93.1288ZM67.1635 88.1653L68.9263 63.4335C72.4919 65.3465 74.6418 68.4777 74.8667 72.1298L75.1901 91.6457C75.1975 92.314 74.943 92.9445 74.4738 93.4204C74.0031 93.8962 73.3763 94.1582 72.7073 94.1582H70.1526C70.2436 93.8304 70.2917 93.4855 70.2917 93.1288C70.2917 91.1654 68.8227 89.5395 66.926 89.2916C67.054 88.9357 67.1362 88.5582 67.1635 88.1653ZM67.4499 93.1288C67.4499 93.6964 66.9881 94.1582 66.4213 94.1582H11.6108C11.044 94.1582 10.5822 93.6964 10.5822 93.1288C10.5822 92.5619 11.044 92.1001 11.6108 92.1001H66.4213C66.9881 92.1001 67.4499 92.5619 67.4499 93.1288ZM65.9454 59.0502C66.2118 59.3366 66.3436 59.7088 66.3154 60.0996L64.3291 87.964C64.2773 88.69 63.6668 89.2583 62.9386 89.2583H14.3808C13.6534 89.2583 13.0428 88.69 12.9903 87.9632L11.0047 60.0996C10.9766 59.7088 11.1083 59.3366 11.3748 59.0502C11.6419 58.7638 12.0038 58.6061 12.3953 58.6061H64.9249C65.3156 58.6061 65.6783 58.7638 65.9454 59.0502ZM46.6426 55.7643H31.3894C32.1665 54.974 32.6379 53.892 32.6379 52.7161V52.0804C34.878 53.24 37.1041 53.8905 39.0157 53.8905C40.9272 53.8905 43.1533 53.24 45.3942 52.0804V52.7161C45.3942 53.892 45.8656 54.974 46.6426 55.7643ZM48.7037 46.3168C45.5311 49.1912 41.7287 51.0487 39.0157 51.0487C36.3034 51.0487 32.501 49.1912 29.3284 46.3168C25.8502 43.1665 23.8557 39.5224 23.8557 36.3202L23.8528 27.3686C23.8713 27.3686 23.8898 27.3693 23.9083 27.3693C24.1651 27.3693 24.4241 27.319 24.672 27.2154C25.4128 26.906 25.8916 26.1875 25.8916 25.3852V15.0467C25.8916 13.5 27.1497 12.2419 28.6964 12.2419H32.5365C33.2137 12.2419 33.8753 12.478 34.3992 12.9065L34.7767 13.2151C35.9696 14.1897 37.4749 14.727 39.0157 14.727C40.5565 14.727 42.0625 14.1897 43.2554 13.2144L43.6321 12.9065C44.1561 12.478 44.8184 12.2419 45.4956 12.2419H49.335C50.8817 12.2419 52.1405 13.5 52.1405 15.0467V25.3852C52.1405 26.1882 52.6186 26.906 53.3601 27.2154C53.625 27.3264 53.904 27.376 54.1786 27.3686L54.1764 36.321C54.1771 39.5224 52.1819 43.1665 48.7037 46.3168ZM94.077 34.0157C94.077 36.1922 92.3068 37.9632 90.1295 37.9632H79.3159C79.0029 37.9632 78.6987 38.0668 78.4508 38.2577L66.6647 47.3107L68.5437 39.726C68.6488 39.3019 68.5534 38.8527 68.284 38.5086C68.0146 38.1644 67.6016 37.9632 67.165 37.9632H56.8924C56.976 37.4103 57.0189 36.862 57.0189 36.321V35.5321C57.7338 35.5284 58.5131 35.3848 59.2154 34.9504C59.8437 34.5619 60.6533 33.7782 60.9449 32.2426L61.7493 27.8148C62.0513 26.1542 61.4807 24.5038 60.2574 23.45V10.9809C60.2574 10.619 60.2396 10.2601 60.2048 9.90633H90.1295C92.3068 9.90633 94.077 11.6773 94.077 13.8538V34.0157Z" fill="#26264F"/>
</svg>
