<svg width="82" height="82" viewBox="0 0 82 82" fill="none" xmlns="http://www.w3.org/2000/svg">
<path d="M28.4233 32.0312H16.6562C16.3167 32.0312 15.99 32.1658 15.7504 32.4067L11.0008 37.1562H10.0142C9.48381 35.6687 8.07444 34.5938 6.40625 34.5938C4.28706 34.5938 2.5625 36.3183 2.5625 38.4375C2.5625 40.5567 4.28706 42.2812 6.40625 42.2812C8.07444 42.2812 9.48381 41.2063 10.0142 39.7188H11.5312C11.8708 39.7188 12.1975 39.5842 12.4371 39.3433L17.1867 34.5938H28.4233C28.9537 36.0813 30.3631 37.1562 32.0312 37.1562C33.005 37.1562 33.8839 36.7808 34.5617 36.1825L39.7828 39.0871C39.7482 39.2934 39.7188 39.5022 39.7188 39.7188C39.7188 41.8379 41.4433 43.5625 43.5625 43.5625C45.6817 43.5625 47.4062 41.8379 47.4062 39.7188C47.4062 39.5022 47.3768 39.2934 47.3422 39.0871L52.5633 36.1825C53.2411 36.7808 54.12 37.1562 55.0938 37.1562C57.2129 37.1562 58.9375 35.4317 58.9375 33.3125C58.9375 31.6443 57.8625 30.2349 56.375 29.7045V24.1067C57.8625 23.5763 58.9375 22.1669 58.9375 20.4987C58.9375 18.3795 57.2129 16.655 55.0938 16.655C54.12 16.655 53.2411 17.0304 52.5633 17.6287L47.3422 14.7241C47.3768 14.5191 47.4062 14.3103 47.4062 14.0938C47.4062 11.9746 45.6817 10.25 43.5625 10.25C41.4433 10.25 39.7188 11.9746 39.7188 14.0938C39.7188 14.3103 39.7482 14.5191 39.7828 14.7254L34.5617 17.63C33.8839 17.0317 33.005 16.6562 32.0312 16.6562C30.3631 16.6562 28.9537 17.7312 28.4233 19.2188H17.1867L12.4371 14.4692C12.1975 14.2283 11.8708 14.0938 11.5312 14.0938H10.0142C9.48381 12.6062 8.07444 11.5312 6.40625 11.5312C4.28706 11.5312 2.5625 13.2558 2.5625 15.375C2.5625 17.4942 4.28706 19.2188 6.40625 19.2188C8.07444 19.2188 9.48381 18.1438 10.0142 16.6562H11.0008L15.7504 21.4058C15.99 21.6467 16.3167 21.7812 16.6562 21.7812H28.4233C28.8102 22.8665 29.6648 23.7211 30.75 24.108V25.625H10.0142C9.48381 24.1375 8.07444 23.0625 6.40625 23.0625C4.28706 23.0625 2.5625 24.7871 2.5625 26.9062C2.5625 29.0254 4.28706 30.75 6.40625 30.75C8.07444 30.75 9.48381 29.675 10.0142 28.1875H30.75V29.7045C29.6648 30.0914 28.8102 30.946 28.4233 32.0312ZM6.40625 39.7188C5.70028 39.7188 5.125 39.1435 5.125 38.4375C5.125 37.7315 5.70028 37.1562 6.40625 37.1562C7.11222 37.1562 7.6875 37.7315 7.6875 38.4375C7.6875 39.1435 7.11222 39.7188 6.40625 39.7188ZM6.40625 16.6562C5.70028 16.6562 5.125 16.081 5.125 15.375C5.125 14.669 5.70028 14.0938 6.40625 14.0938C7.11222 14.0938 7.6875 14.669 7.6875 15.375C7.6875 16.081 7.11222 16.6562 6.40625 16.6562ZM6.40625 28.1875C5.70028 28.1875 5.125 27.6122 5.125 26.9062C5.125 26.2003 5.70028 25.625 6.40625 25.625C7.11222 25.625 7.6875 26.2003 7.6875 26.9062C7.6875 27.6122 7.11222 28.1875 6.40625 28.1875ZM32.0312 34.5938C31.3253 34.5938 30.75 34.0185 30.75 33.3125C30.75 32.6065 31.3253 32.0312 32.0312 32.0312C32.7372 32.0312 33.3125 32.6065 33.3125 33.3125C33.3125 34.0185 32.7372 34.5938 32.0312 34.5938ZM34.5617 23.37L39.7828 26.2746C39.7482 26.4809 39.7188 26.6897 39.7188 26.9062C39.7188 27.1228 39.7482 27.3316 39.7828 27.5379L34.5617 30.4425C34.1978 30.1222 33.7776 29.8711 33.3125 29.7045V24.1067C33.7776 23.9414 34.1991 23.6916 34.5617 23.37ZM52.5633 30.4425L47.3422 27.5379C47.3768 27.3316 47.4062 27.1228 47.4062 26.9062C47.4062 26.6897 47.3768 26.4809 47.3422 26.2746L52.5633 23.37C52.9272 23.6903 53.3474 23.9414 53.8125 24.108V29.7058C53.3474 29.8711 52.9259 30.1209 52.5633 30.4425ZM35.8109 32.6808L41.032 29.7762C41.3959 30.0966 41.8162 30.3477 42.2812 30.5142V36.112C41.8162 36.2786 41.3946 36.5284 41.032 36.85L35.8109 33.9454C35.8455 33.7379 35.875 33.529 35.875 33.3125C35.875 33.096 35.8455 32.8871 35.8109 32.6808ZM43.5625 25.625C44.2685 25.625 44.8438 26.2003 44.8438 26.9062C44.8438 27.6122 44.2685 28.1875 43.5625 28.1875C42.8565 28.1875 42.2812 27.6122 42.2812 26.9062C42.2812 26.2003 42.8565 25.625 43.5625 25.625ZM44.8438 30.5142C45.3088 30.3477 45.7304 30.0978 46.093 29.7762L51.3141 32.6808C51.2795 32.8871 51.25 33.096 51.25 33.3125C51.25 33.529 51.2795 33.7379 51.3141 33.9442L46.093 36.8488C45.7291 36.5284 45.3088 36.2773 44.8438 36.1108V30.5142ZM51.3141 21.1317L46.093 24.0363C45.7291 23.7159 45.3088 23.4648 44.8438 23.2983V17.7005C45.3088 17.5339 45.7304 17.2841 46.093 16.9625L51.3141 19.8671C51.2795 20.0746 51.25 20.2835 51.25 20.5C51.25 20.7165 51.2795 20.9254 51.3141 21.1317ZM42.2812 23.2983C41.8162 23.4648 41.3946 23.7147 41.032 24.0363L35.8109 21.1317C35.8455 20.9254 35.875 20.7165 35.875 20.5C35.875 20.2835 35.8455 20.0746 35.8109 19.8683L41.032 16.9637C41.3959 17.2841 41.8162 17.5352 42.2812 17.7017V23.2983ZM43.5625 41C42.8565 41 42.2812 40.4247 42.2812 39.7188C42.2812 39.0128 42.8565 38.4375 43.5625 38.4375C44.2685 38.4375 44.8438 39.0128 44.8438 39.7188C44.8438 40.4247 44.2685 41 43.5625 41ZM55.0938 34.5938C54.3878 34.5938 53.8125 34.0185 53.8125 33.3125C53.8125 32.6065 54.3878 32.0312 55.0938 32.0312C55.7997 32.0312 56.375 32.6065 56.375 33.3125C56.375 34.0185 55.7997 34.5938 55.0938 34.5938ZM55.0938 19.2188C55.7997 19.2188 56.375 19.794 56.375 20.5C56.375 21.206 55.7997 21.7812 55.0938 21.7812C54.3878 21.7812 53.8125 21.206 53.8125 20.5C53.8125 19.794 54.3878 19.2188 55.0938 19.2188ZM43.5625 12.8125C44.2685 12.8125 44.8438 13.3878 44.8438 14.0938C44.8438 14.7997 44.2685 15.375 43.5625 15.375C42.8565 15.375 42.2812 14.7997 42.2812 14.0938C42.2812 13.3878 42.8565 12.8125 43.5625 12.8125ZM32.0312 19.2188C32.7372 19.2188 33.3125 19.794 33.3125 20.5C33.3125 21.206 32.7372 21.7812 32.0312 21.7812C31.3253 21.7812 30.75 21.206 30.75 20.5C30.75 19.794 31.3253 19.2188 32.0312 19.2188Z" fill="#FAA701"/>
<path d="M29.4688 79.4375H49.9688C50.6761 79.4375 51.2501 78.8635 51.2501 78.1562V69.1875H67.9063C68.6136 69.1875 69.1876 68.6135 69.1876 67.9062V52.5312H78.1563C78.5638 52.5312 78.9469 52.3378 79.189 52.0085C79.4312 51.6792 79.5016 51.2564 79.3799 50.8669L72.9916 30.4258C72.7354 22.6512 69.4528 15.4762 63.723 10.1885C57.9267 4.84054 50.3737 2.15504 42.4722 2.61373C33.3779 3.14545 24.9524 8.13592 19.9337 15.9644L22.0914 17.3468C26.6693 10.2064 34.344 5.65542 42.6234 5.1711C49.8253 4.74701 56.7069 7.2006 61.9844 12.0719C67.2798 16.9573 70.2818 23.6134 70.4381 30.8128C70.4432 31.0344 70.5085 31.2433 70.6187 31.4239L76.4138 49.9687H67.9063C67.1991 49.9687 66.6251 50.5427 66.6251 51.25V56.375H62.7813C60.6621 56.375 58.9376 54.6504 58.9376 52.5312H56.3751C56.3751 56.0636 59.2489 58.9375 62.7813 58.9375H66.6251V66.625H49.9688C49.2616 66.625 48.6876 67.199 48.6876 67.9062V76.875H30.7501V75.636C30.7501 65.2694 27.6341 54.6696 21.7377 44.9821C20.4334 42.8399 19.4482 40.5272 18.8075 38.1095L16.3296 38.7655C17.033 41.4215 18.1157 43.9609 19.5481 46.3146C25.1997 55.6011 28.1876 65.7396 28.1876 75.636V78.1562C28.1876 78.8635 28.7616 79.4375 29.4688 79.4375Z" fill="#26264F"/>
</svg>
